PathFileType	4	(X/Y/Z)	..\data\2014048\dynamic\2014048_C5_02.trc
DataRate	CameraRate	NumFrames	NumMarkers	Units	OrigDataRate	OrigDataStartFrame	OrigNumFrames
100.000000	100.000000	4	52	mm	100.000000	72	144
Frame#	Time	L_IAS			L_IPS			R_IPS			R_IAS			L_FTC			L_FLE			L_FME			L_FAX			L_TTC			L_FAL			L_TAM			L_FCC			L_FM1			L_FM2			L_FM5			R_FTC			R_FLE			R_FME			R_FAX			R_TTC			R_FAL			R_TAM			R_FCC			R_FM1			R_FM2			R_FM5			CV7			TV10			SXS			SJN			L_SIA			L_SRS			L_SAA			L_SAE			L_HLE			L_HME			L_UOA			L_RSP			L_UHE			L_HM2			L_HM5			R_SIA			R_SRS			R_SAA			R_SAE			R_HLE			R_HME			R_UOA			R_RSP			R_UHE			R_HM2			R_HM5			
		X1	Y1	Z1	X2	Y2	Z2	X3	Y3	Z3	X4	Y4	Z4	X5	Y5	Z5	X6	Y6	Z6	X7	Y7	Z7	X8	Y8	Z8	X9	Y9	Z9	X10	Y10	Z10	X11	Y11	Z11	X12	Y12	Z12	X13	Y13	Z13	X14	Y14	Z14	X15	Y15	Z15	X16	Y16	Z16	X17	Y17	Z17	X18	Y18	Z18	X19	Y19	Z19	X20	Y20	Z20	X21	Y21	Z21	X22	Y22	Z22	X23	Y23	Z23	X24	Y24	Z24	X25	Y25	Z25	X26	Y26	Z26	X27	Y27	Z27	X28	Y28	Z28	X29	Y29	Z29	X30	Y30	Z30	X31	Y31	Z31	X32	Y32	Z32	X33	Y33	Z33	X34	Y34	Z34	X35	Y35	Z35	X36	Y36	Z36	X37	Y37	Z37	X38	Y38	Z38	X39	Y39	Z39	X40	Y40	Z40	X41	Y41	Z41	X42	Y42	Z42	X43	Y43	Z43	X44	Y44	Z44	X45	Y45	Z45	X46	Y46	Z46	X47	Y47	Z47	X48	Y48	Z48	X49	Y49	Z49	X50	Y50	Z50	X51	Y51	Z51	X52	Y52	Z52	

73	0.72	-115.1033554077149	901.501892089844	90.18386077880859	-318.2539672851563	942.379089355469	144.6446990966797	-321.2721252441407	936.145446777344	249.0465850830078	-125.5879516601563	889.8084106445315	327.0076904296876	-187.1552886962891	880.900085449219	20.67891120910643	-168.6324157714844	444.2503662109376	86.43611907958984	-174.1702728271485	447.3056640625001	215.6167144775391	-184.0031127929688	381.8805847167969	85.35123443603514	-138.881332397461	376.3132629394532	148.1408081054688	-233.4595489501954	64.29844665527345	132.9817504882812	-209.9792480468751	84.3468475341797	217.9460144042969	-280.5001525878907	19.75818252563477	186.5144195556641	-90.00051116943364	23.61680793762207	196.256332397461	-86.17606353759768	31.54032707214356	142.4824829101563	-145.4203491210938	14.73071956634522	98.96160125732423	-209.4490966796876	858.375671386719	395.9333496093751	-65.91764068603521	456.6287841796876	358.7166137695313	-30.36555290222172	460.416473388672	229.6454467773438	-89.28403472900396	412.6405029296876	362.0046691894532	-30.55385589599614	389.3229980468751	311.4319152832032	-275.3972778320314	146.150863647461	328.3956604003906	-240.843963623047	151.7313690185547	246.3620147705078	-330.510467529297	137.06298828125	271.2990417480469	-178.3805847167969	43.43906021118165	271.3162231445313	-181.8000183105469	57.11592864990236	319.1440124511719	-225.6076660156251	63.64846420288087	355.1667480468751	-269.1422729492188	1398.67041015625	201.9904022216797	-319.4592590332032	1118.60009765625	198.6968536376953	-107.4158782958985	1093.324096679688	218.3302764892579	-151.6813659667969	1318.0927734375	206.5992889404297	-339.7515869140626	1179.901489257813	124.8713989257812	-306.9759521484376	1320.449829101563	120.0567398071289	-261.1862487792969	1326.952514648438	45.28712463378903	-212.3572387695313	1331.261840820313	38.64809799194334	-246.7796630859376	1023.627868652344	-34.9670333862305	-265.1177673339844	1009.086975097656	46.82620620727536	-271.9399414062501	997.047790527344	1.632417678832975	-148.0816345214844	792.9673461914065	-33.23755264282229	-212.7369842529297	799.645935058594	-80.82692718505864	-133.2694396972657	702.6312255859376	-49.33730316162112	-219.8920593261719	723.6862182617189	-93.99627685546879	-340.0809631347657	1178.313354492188	293.9259033203125	-315.0197753906251	1320.704223632813	289.8235778808594	-265.6664123535157	1327.912231445313	365.9170837402344	-219.6679992675782	1325.921630859375	384.2919311523439	-268.7098388671876	1015.036499023438	446.9222106933594	-277.6933593750001	1003.541015625	366.5833435058594	-286.1666564941407	990.671569824219	415.4678955078126	-114.0366821289063	813.2297973632815	434.7985229492189	-184.7643432617188	795.317321777344	471.9259338378907	-78.59968566894538	730.8677978515626	448.2512512207032	-170.962615966797	723.4897460937501	483.2026367187501	
74	0.73	-102.1207351684571	901.2667236328127	89.49041748046875	-304.6094970703126	942.8879394531252	144.7626647949219	-307.3125610351564	937.0766601562502	249.2977752685547	-111.346794128418	890.9329833984377	325.5719299316407	-174.3155517578125	880.746520996094	20.37109374999998	-165.0646362304688	443.8693847656251	86.67547607421875	-170.8952026367188	447.1398315429689	216.0508575439453	-181.3018341064453	381.7973937988282	85.69874572753905	-136.4715881347657	375.6007690429688	148.642578125	-233.3460235595704	64.40942382812501	133.333251953125	-209.8087005615235	84.32617187500001	218.3351440429688	-280.5536193847657	19.92626380920411	186.6781768798828	-89.85524749755864	23.2074146270752	196.3359832763672	-86.02837371826175	31.28692817687989	142.4980773925782	-145.4315032958985	14.68008327484131	99.06075286865236	-194.1901092529298	860.4487304687502	395.7857971191407	-44.12198257446294	460.1563415527345	357.1245117187501	-10.11352443695071	465.025604248047	228.0849914550782	-65.39533233642584	414.4719848632814	360.6197509765626	-6.516250610351602	394.1617126464845	309.5644836425782	-236.2141571044923	136.5301055908203	328.9346008300781	-203.2071990966798	144.2298889160157	246.6649780273438	-291.2909240722657	124.3013763427735	272.4262390136719	-133.3568420410157	40.58659362792969	270.7468261718751	-137.0869903564454	53.99131011962892	318.5589294433594	-180.9566497802735	57.49890899658205	355.1520690917969	-255.6082763671876	1399.068115234375	202.117919921875	-305.6785583496094	1119.020263671875	198.1016082763672	-93.77915191650395	1094.776000976563	218.446273803711	-138.114730834961	1318.778442382813	207.1611480712891	-325.6019287109376	1180.57373046875	123.8318176269531	-293.1778869628907	1321.004638671875	119.8761825561523	-247.0685729980469	1327.92431640625	45.37498855590818	-198.3537597656251	1332.420654296875	39.0298728942871	-226.710433959961	1024.553466796875	-36.98339462280277	-246.6038360595704	1009.507690429688	44.54993438720701	-252.354965209961	997.0014648437502	-0.8798826932907415	-120.0471115112305	797.3852539062502	-32.87320709228518	-183.9216766357422	801.666442871094	-81.86851501464848	-100.9929351806641	708.1142578125001	-49.44168090820315	-187.3300170898438	725.6700439453126	-95.88014984130864	-326.8179016113282	1178.728759765625	292.7210998535156	-301.713104248047	1320.840209960938	289.3646545410156	-252.9306640625001	1328.064819335938	365.6950073242188	-207.1632385253907	1326.11474609375	384.4503173828126	-260.0047607421876	1015.952026367188	444.6614990234376	-267.5777587890626	1004.899108886719	363.9810180664062	-277.559051513672	992.483093261719	412.5397949218751	-115.3942031860352	806.7222290039065	436.8401184082032	-187.9289550781251	792.5393066406252	472.0581054687501	-85.02458190917976	722.3792114257814	450.9847717285157	-178.2292022705079	720.1472167968751	483.6860961914064	
75	0.74	-89.17242431640628	900.5843505859377	88.75791931152344	-291.0296020507813	942.983825683594	145.0662078857422	-293.3312377929689	937.5457153320315	249.8182525634766	-96.99250793457038	891.5146484375002	324.1198120117188	-161.5076141357422	880.295837402344	20.05750656127928	-161.3068389892578	443.4005432128907	86.88043212890625	-167.2871704101563	446.895477294922	216.4539031982422	-178.3847045898438	381.6474609375001	86.03466033935545	-133.8244781494141	374.7949829101563	149.0822906494141	-233.1897430419923	64.54758453369142	133.7608947753906	-209.5825195312501	84.27014923095705	218.8035125732422	-280.5606689453126	20.12493133544922	186.9435729980469	-89.69990539550786	22.79239654541016	196.4270324707032	-85.88391876220706	31.0487461090088	142.5183563232422	-145.4573516845703	14.69084358215332	99.18979644775392	-178.6658477783204	862.003356933594	395.7473754882814	-23.16724967956548	463.0161743164064	355.6248168945313	9.120385169982884	468.7875976562501	226.5743255615235	-42.22010040283208	415.653045654297	359.3370666503907	16.64803504943844	398.4665527343751	307.7567749023438	-196.1602935791016	126.8867416381836	329.4861145019532	-164.8185272216797	136.7001342773438	247.0028533935547	-250.8289031982423	111.4095230102539	273.6531372070312	-87.85877990722661	38.20128631591798	270.1549072265626	-91.89698028564459	51.2973976135254	317.9586791992188	-135.6407165527345	51.78281784057619	355.1145019531251	-242.0667266845704	1399.057983398438	202.245101928711	-291.9225158691407	1119.048950195313	197.5480499267578	-80.06376647949223	1095.853149414063	218.5368347167969	-124.5806579589844	1319.096435546875	207.7375793457032	-311.3902587890626	1180.816162109375	122.8258514404297	-279.3435974121094	1321.134521484375	119.6744384765625	-232.9370422363282	1328.446411132813	45.43233489990232	-184.3408203125	1333.164672851563	39.3782386779785	-206.8224334716797	1025.187133789063	-38.98128509521488	-228.0994262695313	1009.58447265625	42.27431488037107	-232.7662200927735	996.6109008789065	-3.357228517532378	-92.18904113769533	801.8792724609377	-32.39787292480471	-155.2132720947266	803.6921386718752	-82.64823913574222	-68.8107147216797	713.9235229492189	-49.29422760009768	-154.757568359375	727.8280029296876	-97.34246063232426	-313.5403747558595	1178.704223632813	291.522705078125	-288.3857727050782	1320.544555664063	288.8876953125	-240.1875457763673	1327.768432617188	365.4902648925781	-194.6385345458986	1325.86474609375	384.613250732422	-251.2059783935548	1016.506591796875	442.4848632812501	-257.3774719238282	1005.781921386719	361.5130615234375	-268.8416748046876	993.955993652344	409.7406005859376	-116.9936981201173	800.5401000976565	438.9649047851564	-191.1117095947266	790.143005371094	472.0930175781251	-91.83221435546882	714.4430541992189	453.7089233398439	-185.5900878906251	717.4508056640626	483.9982299804689	
76	0.75	-76.258903503418	899.4560546875002	87.99965667724609	-277.5200500488282	942.6602172851565	145.5310974121094	-279.3406066894532	937.5303955078127	250.5623779296875	-82.53016662597662	891.5695800781252	322.7290039062501	-148.7455749511719	879.5217285156252	19.74502372741698	-157.2947235107422	442.8288879394532	87.06515502929688	-163.2546539306641	446.5479736328126	216.8310241699219	-175.204345703125	381.4110717773438	86.37403869628905	-130.8729858398438	373.8734436035157	149.4587554931641	-232.9863739013673	64.7201614379883	134.2805938720703	-209.2810821533204	84.17702484130861	219.3656768798828	-280.5093078613282	20.37086486816407	187.3448181152344	-89.54335784912114	22.39192581176758	196.5312042236329	-85.7580490112305	30.8385353088379	142.5471801757813	-145.5115356445313	14.77026653289795	99.36717987060548	-162.9588470458985	862.9924316406252	395.8064270019532	-3.112079858779952	465.1414184570314	354.2445983886719	27.25065422058103	471.5891418457032	225.1276855468751	-19.8328247070313	416.1836547851564	358.1732482910157	38.87517166137692	402.1701660156251	306.0420227050782	-155.3070220947266	117.4857940673828	330.0696716308594	-125.731803894043	129.3553466796875	247.3989410400391	-209.1869506835938	98.63276672363284	274.9834899902344	-41.99217605590825	36.50278091430665	269.5873718261719	-46.33411026000981	49.28096008300783	317.3931579589844	-89.75335693359381	46.77338027954102	355.0924072265626	-228.5002441406251	1398.641479492188	202.370101928711	-278.1885375976563	1118.694091796875	197.0521545410157	-66.27731323242192	1096.477416992188	218.6114044189454	-111.0665512084962	1319.021362304688	208.3192596435547	-297.1317138671876	1180.635009765625	121.8711547851562	-265.4617004394532	1320.842895507813	119.4462738037109	-218.7767333984376	1328.51025390625	45.44943618774412	-170.293212890625	1333.47265625	39.68950271606444	-187.1183471679688	1025.502197265625	-40.94662857055667	-209.5938720703126	1009.280700683594	40.00902175903318	-213.1533355712891	995.8503417968752	-5.790626525878933	-64.56432342529298	806.4126586914065	-31.82328987121583	-126.6741638183594	805.6904907226565	-83.17765808105472	-36.81265640258789	720.0212402343751	-48.89298248291018	-122.2713928222656	730.1155395507814	-98.36636352539067	-300.2436828613282	1178.227905273438	290.3422546386719	-275.0215148925782	1319.819702148438	288.395263671875	-227.4163360595704	1327.021118164063	365.3071594238282	-182.072250366211	1325.161743164063	384.7923889160157	-242.3333129882814	1016.676147460938	440.4075622558594	-247.142547607422	1006.156494140625	359.2062377929688	-260.0333557128907	995.0593872070315	407.0950622558594	-118.7286529541016	794.7078247070315	441.141815185547	-194.1922912597657	788.1186523437502	472.0367126464845	-98.8709259033204	707.0956420898439	456.3748474121095	-192.8816833496095	715.3878173828126	484.120819091797	
